<svg width="23" height="27" viewBox="0 0 23 27" fill="none" xmlns="http://www.w3.org/2000/svg">
<path d="M0 26.5405V25.0827C2.75051 24.9679 3.06056 24.7758 3.06056 22.8189V3.71963C3.06056 1.76474 2.75051 1.57262 0 1.45775V0H12.0022C15.1408 0 17.6573 0.306998 19.5556 1.45775C21.454 2.60849 22.8482 4.71787 22.8482 7.78587C22.8482 10.6241 21.802 12.6959 19.8657 14.0764C18.0833 15.342 15.2168 15.9936 11.5761 15.9936H9.25771V22.8189C9.25771 24.7758 9.56776 24.9679 12.9764 25.16V26.5464L0 26.5405ZM9.25771 12.579C9.25771 14.0368 9.91782 14.2289 11.4281 14.2289C15.3388 14.2289 16.347 10.8162 16.347 7.90075C16.347 3.48988 14.1466 1.76078 11.5461 1.76078C9.56977 1.76078 9.2597 2.10541 9.2597 3.17892L9.25771 12.579Z" fill="#231F20"/>
</svg>
