<?xml version="1.0" encoding="utf-8"?>
<!-- Generator: Adobe Illustrator 22.0.1, SVG Export Plug-In . SVG Version: 6.00 Build 0)  -->
<svg width="23" height="25" version="1.1" id="Layer_1" xmlns="http://www.w3.org/2000/svg" xmlns:xlink="http://www.w3.org/1999/xlink" x="15px" y="15px"
	 viewBox="0 0 24.3 23.4" style="enable-background:#000000;" xml:space="preserve">

<path class="st0" d="M16.4,15.9c3-3,3-8,0-11c-3-3-8-3-11,0c-3,3-3,8,0,11C8.4,18.9,13.3,18.9,16.4,15.9z M17.3,18.1
	c-3.9,3.3-9.8,3.1-13.4-0.6c-3.9-3.9-3.9-10.2,0-14.1c3.9-3.9,10.2-3.9,14.1,0c3.6,3.6,3.9,9.1,0.9,13.1l4.5,4.5
	c0.5,0.5,0.5,1.2,0,1.7c-0.5,0.5-1.2,0.5-1.7,0L17.3,18.1z"/>
</svg>
