<svg width="23" height="25" viewBox="0 0 23 25" fill="#000000" xmlns="http://www.w3.org/2000/svg">
<path d="M22.9312 20.4255C22.4937 18.4878 21.5677 16.6943 20.2411 15.2156C18.9146 13.737 17.2318 12.6223 15.3527 11.9779C16.4091 11.1728 17.1863 10.0567 17.575 8.78668C17.9636 7.51668 17.9442 6.15676 17.5193 4.8984C17.0944 3.64004 16.2856 2.54663 15.2067 1.77213C14.1277 0.997633 12.833 0.581055 11.5049 0.581055C10.1767 0.581055 8.88205 0.997633 7.8031 1.77213C6.72416 2.54663 5.91532 3.64004 5.49047 4.8984C5.06561 6.15676 5.04615 7.51668 5.43482 8.78668C5.82349 10.0567 6.60071 11.1728 7.65704 11.9779C5.77801 12.6223 4.09517 13.737 2.76864 15.2156C1.44212 16.6943 0.516045 18.4878 0.0785511 20.4255C-0.0233209 20.8566 -0.0261418 21.3051 0.0703005 21.7374C0.166743 22.1697 0.359938 22.5744 0.635359 22.9213C0.91078 23.2682 1.26126 23.5481 1.66044 23.74C2.05962 23.9319 2.49711 24.0308 2.94002 24.0292H20.0698C20.5118 24.0293 20.9482 23.9293 21.3462 23.7368C21.7441 23.5442 22.0933 23.2641 22.3677 22.9175C22.642 22.5708 22.8343 22.1665 22.9302 21.735C23.0261 21.3034 23.0231 20.8558 22.9215 20.4255H22.9312ZM7.11014 6.93855C7.11014 6.06935 7.36789 5.21967 7.85079 4.49696C8.33369 3.77425 9.02005 3.21096 9.82309 2.87833C10.6261 2.54571 11.5098 2.45868 12.3623 2.62825C13.2148 2.79782 13.9978 3.21638 14.6124 3.83099C15.2271 4.44561 15.6456 5.22868 15.8152 6.08118C15.9848 6.93367 15.8977 7.81731 15.5651 8.62034C15.2325 9.42338 14.6692 10.1097 13.9465 10.5926C13.2238 11.0755 12.3741 11.3333 11.5049 11.3333C10.3393 11.3333 9.22151 10.8703 8.39733 10.0461C7.57316 9.22193 7.11014 8.10411 7.11014 6.93855ZM20.8315 21.7049C20.7406 21.82 20.6248 21.9131 20.493 21.9774C20.3611 22.0416 20.2164 22.0753 20.0698 22.076H2.94002C2.79333 22.0753 2.64867 22.0416 2.51679 21.9774C2.38492 21.9131 2.26921 21.82 2.17826 21.7049C2.08212 21.5881 2.01443 21.4505 1.98053 21.3031C1.94663 21.1556 1.94746 21.0023 1.98294 20.8552C2.47866 18.7023 3.68969 16.7811 5.41825 15.4054C7.14682 14.0296 9.29077 13.2805 11.5 13.2805C13.7092 13.2805 15.8532 14.0296 17.5817 15.4054C19.3103 16.7811 20.5213 18.7023 21.0171 20.8552C21.0539 21.0016 21.0563 21.1544 21.0241 21.3019C20.9919 21.4493 20.926 21.5872 20.8315 21.7049Z" fill="#000000" />
</svg>
