<svg width="16" height="10" viewBox="0 0 16 10" fill="none" xmlns="http://www.w3.org/2000/svg">
<path d="M5.12305 0V0.77466L4.57157 0.836844C4.17781 0.876894 4.09946 1.04026 4.21749 1.48925L5.71421 7.1016H5.77323L7.6047 0H9.67326L11.7031 7.1016H11.7815C12.274 5.18339 12.9241 2.59169 13.1042 1.57146C13.1632 1.1836 13.1236 0.959105 12.7685 0.897975L11.9219 0.77466V0H16V0.77466C14.9957 0.856869 14.8574 0.999155 14.5623 1.79595C14.2662 2.53373 13.85 3.8164 13.4431 5.22449L12.0247 10H9.85742L7.88451 3.73419H7.80617L6.01335 10H3.8461L2.18658 4.59633C1.79281 3.31155 1.67784 2.90261 1.24133 1.65788C1.00528 0.964374 0.787536 0.862141 0 0.779932V0.00526853L5.12305 0Z" fill="#231F20"/>
</svg>
