<svg width="12" height="14" viewBox="0 0 12 14" fill="none" xmlns="http://www.w3.org/2000/svg">
<path d="M0 13.9969V13.2281C1.44458 13.1675 1.60742 13.0662 1.60742 12.0342V1.96165C1.60742 0.930687 1.44458 0.829367 0 0.768783V0H6.30363C7.95202 0 9.27368 0.161904 10.2707 0.768783C11.2677 1.37566 12 2.4881 12 4.10609C12 5.60292 11.4505 6.69552 10.4335 7.42356C9.49746 8.09102 7.99195 8.43468 6.07985 8.43468H4.8622V12.0342C4.8622 13.0662 5.02504 13.1675 6.81527 13.2688V14L0 13.9969ZM4.8622 6.63389C4.8622 7.40267 5.20889 7.50399 6.0021 7.50399C8.05603 7.50399 8.58554 5.70425 8.58554 4.16668C8.58554 1.84048 7.42987 0.928598 6.06409 0.928598C5.02609 0.928598 4.86325 1.11035 4.86325 1.67649L4.8622 6.63389Z" fill="#231F20"/>
</svg>
