<svg width="33" height="20" viewBox="0 0 33 20" fill="none" xmlns="http://www.w3.org/2000/svg">
<path d="M10.7475 0.74823V2.20399L9.66331 2.32085C8.88917 2.39611 8.73514 2.70311 8.96718 3.54686L11.9097 14.0937H12.0257L15.6264 0.74823H19.6932L23.6839 14.0937H23.8379C24.8061 10.489 26.0843 5.6186 26.4384 3.70135C26.5544 2.97248 26.4764 2.5506 25.7783 2.43573L24.114 2.20399V0.74823H32.1314V2.20399C30.1571 2.35848 29.885 2.62587 29.3049 4.12323C28.7228 5.50967 27.9047 7.9201 27.1045 10.5662L24.316 19.5405H20.0552L16.1765 7.76561H16.0225L12.4978 19.5405H8.23704L4.97444 9.38577C4.2003 6.97138 3.97426 6.20289 3.1161 3.86376C2.65202 2.56051 2.22394 2.36839 0.675655 2.2139V0.758131L10.7475 0.74823Z" fill="#231F20"/>
</svg>
